<!-- Generated by IcoMoon.io -->
<svg version="1.1" xmlns="http://www.w3.org/2000/svg" width="2095" height="1024" viewBox="0 0 2095 1024" fill="#2A63ED">
<title></title>
<g id="icomoon-ignore">
</g>
<path d="M1871.163 505.687c-4.978 1.957-10.114 4.276-15.439 5.933-3.293 1.026-7.089 2.067-10.287 1.356-11.406-2.429-22.686-5.484-33.76-9.15-4.033-1.389-8.854-5.144-10.145-8.899-2.82-8.266-10.287-8.392-15.959-10.301-6.9-2.335-14.73-1.925-22.843-2.777 0 4.923-0.331 10.366 0 15.777 0.315 5.411-3.040 8.866-7.121 8.014-4.474-0.947-8.334-4.906-12.241-7.888-0.299-0.221 1.103-4.087 2.016-4.228 4.269-0.63 8.271-1.356 6.522-6.957-1.182-3.819-3.387-7.305-5.577-11.833 6.112-6.185 4.726-12.211-5.53-16.297-2.647-1.216-5.215-2.58-7.719-4.087 0.425-1.388 0.441-2.004 0.74-2.335 1.922-2.114 3.907-4.165 5.86-6.232-2.678-1.356-5.278-2.933-8.050-4.022-3.954-1.615-8.019-2.954-12.162-4.008-3.135-0.529-6.302-0.83-9.468-0.9-1.449 14.404 8.932 20.699 17.219 28.209l-1.717 1.957-18.306-6.201c0.803 4.939 0.803 8.283 1.89 11.201 3.891 10.366 0.772 19.61-5.419 27.5-1.969 2.508-7.798 2.666-11.847 2.697-7.971 0-16.274 0.474-23.851-1.577-8.822-2.287-17.109-6.832-25.458-10.744-3.324-1.579-6.018-4.496-9.358-6.059-6.491-3.012-10.476-1.325-11.28 6.516-0.173 1.673-2.914 3.929-4.726 4.323-1.575 0.348-5.262-1.577-5.246-2.555 0-2.051 1.575-4.244 2.804-6.138 2.568-3.707 11.374-2.918 7.893-10.917-2.93-6.925-9.106-2.855-13.769-3.723-3.009-0.569-6.207-0.11-11.043-0.11 2.206 11.043 4.395 20.998 6.128 31.048 0.898 4.091 1.024 8.312 0.362 12.449-1.371 6.516-7.467 8.724-14.194 6.721-3.434-1.188-7.121-1.434-10.665-0.71-5.687 1.579-7.565-0.63-8.701-5.585-1.831-8.061-3.661-16.171-6.202-24.028-1.167-3.644-3.976-6.768-6.045-10.128l-6.895 6.595c-0.931 0.868-1.925 1.577-2.903 2.492l-2.541-0.394c0.427-4.734 0.315-9.466 1.453-14.026 0.994-3.976 3.929-7.431 5.033-11.392 0.963-3.423 1.878-9.622 0.49-10.38-3.346-1.862-8.064-1.435-12.231-1.579-1.687 0-3.408 0.837-6.153 0.632 8.395-13.189 5.397-25.685 0.362-38.274-0.726-1.815 0.189-4.26-0.362-6.216-0.553-1.957-2.478-4.732-2.951-4.575-8.98 2.951-13.983-6.027-21.542-6.894-2.914-0.427-5.875-0.427-8.789 0-10.921 1.939-21.715 4.732-32.699 6.057-5.649 0.647-8.885 2.177-11.22 7.494-5.098 11.659-11.946 22.087-23.672 26.821-2.604-17.354-6.027-34.978-7.496-52.711-0.663-7.967 2.525-16.282 4.087-24.406 0.49-2.636 1.374-5.175 1.911-7.195-5.224-1.246-10.905-0.963-13.178-3.612-2.272-2.651 0.584-9.008-1.372-12.164-5.129-8.331-10.368-20.132-17.991-22.419-8.142-2.429-16.822-4.575-25.107-7.526-8.885-3.155-16.286-7.715-20.215-17.102-0.978-2.319-5.429-3.345-8.442-4.606-3.299-1.372-7.7-1.404-10.021-3.66-7.401-7.179-17.186-12.874-17.785-25.242 0-1.089-5.775-3.045-8.395-2.462-1.878 0.411-4.736 5.364-4.12 6.628 5.32 10.097 11.151 19.918 17.469 29.423 3.488 5.174 9.263 5.947 15.544 5.474 3.389-0.049 6.664 1.218 9.137 3.534 5.492 5.6 10.179 11.974 16.017 19.026-11.488 6.5-20.515 12.37-30.315 16.835-4.465 2.035-12.119 3.675-14.96 1.356-7.165-5.837-12.214-0.931-18.495 0.126-4.545 0.774-9.689-2.035-14.991-3.345-0.537 2.508-0.963 4.433-1.342 6.216h-10.131c2.195-6.469-0.425-8.157-6.090-9.34-2.872-0.599-6.803-5.695-6.803-8.74 0-12.148-3.677-22.244-12.403-30.67-1.052-1.424-1.764-3.070-2.083-4.811-3.882-12.291-7.623-24.644-11.6-36.918-2.272-7.006-7.669-7.667-15.070-5.933 2.935 9.136 5.807 18.191 8.773 27.215 3.994 12.164 7.527 24.518 12.263 36.382 3.645 9.15 8.821 17.701 13.318 26.52 0.6 1.167 1.783 2.335 1.736 3.455-0.458 12.622 8.411 13.032 17.501 14.199 6.675 0.789 13.114 3.408 19.773 4.465 7.401 1.199 7.322 6.61 4.529 10.272-9.799 12.843-19.141 27.215-35.049 32.752-16.174 5.616-28.325 15.776-38.931 28.146-7.070 8.25-5.051 18.553-2.809 27.908 4.324 18.112-3.393 34.866-20.31 41.888-9.011 3.738-12.625 8.772-12.23 18.853 0.347 8.030-0.868 14.325-9.47 17.591-2.492 0.931-4.876 4.228-5.775 6.958-5.775 17.67-27.158 33.731-45.559 33.731h-0.789c-21.857 0-21.461 0-23.955-21.599-0.647-5.632-4.893-10.76-6.96-16.329s-4.97-11.722-5.049-17.622c-0.032-10.494-2.639-20.819-7.59-30.071-7.354-13.868-8.869-27.925 2.73-40.925 1.712-1.941 2.699-4.417 2.793-7.004-0.49-16.455-3.693-32.28-14.851-45.105-4.876-5.586-6.533-10.823-3.771-17.797 1.527-4.46 2.719-9.025 3.567-13.662 1.579-6.691-3.282-11.722-9.752-9.293-7.576 2.84-11.694-0.095-15.782-5.947-6.106-8.866-8.915-9.703-18.194-4.244s-19.269 5.585-29.557 5.979c-5.903 0.221-11.647 3.36-17.595 4.559-3.488 0.695-8.316 1.579-10.637-0.142-8.301-6.183-15.781-13.52-23.672-20.319-3.313-2.872-6.47-6.216-10.32-8.063-9.736-4.732-13.129-13.221-14.645-22.766-0.425-2.697 2.147-5.742 2.777-8.74 1.153-5.49 3.899-11.674 2.447-16.502-6.832-22.75 3.535-38.605 19.725-51.969 6.58-5.443 11.568-10.743 12.924-19.579 1.279-8.329 16.902-19.278 25.77-20.872 12.009-2.146 23.782-5.6 35.681-8.455 5.744-1.389 11.472-3.472 17.359-3.819 11.047-0.663 22.093-0.331 33.14-0.347 8.71 0 13.35 5.095 11.377 13.457-1.215 5.207 0.852 8.236 4.829 10.35 10.605 5.648 21.131 11.532 32.146 16.296 3.129 1.457 6.636 1.903 10.029 1.276 3.393-0.629 6.508-2.298 8.909-4.778 5.033-5 9.926-4.559 16.334-1.876 7.574 3.154 15.97 4.417 24.034 6.453 1.542 0.228 3.070 0.55 4.576 0.961 9.153 3.535 18.257 7.242 27.442 10.728 1.711 0.646 3.556 0.851 5.366 0.6 6.092-1.010 20.721-16.693 21.146-22.939 0.126-2.020-1.293-4.165-2.004-6.311l-1.246 2.461c-7.291-1.703-14.566-3.423-21.873-5.096-1.234-0.436-2.544-0.614-3.85-0.52-11.458 2.429-17.595-7.305-25.959-11.691-1.673-0.868-1.421-6.12-1.389-9.339 0-11.043-1.579-12.244-11.836-8.866-1.514 0.399-2.993 0.926-4.419 1.577-1.878 0.994-4.197 1.957-5.096 3.612-0.474 0.852 1.579 3.155 2.699 4.734 1.12 1.577 2.415 2.996 4.246 5.27-4.246 1.845-7.623 3.817-11.269 4.732-1.577 0.394-5.112-1.057-5.523-2.382-7.622-24.186-26.306-38.432-46.175-51.48-2.303-1.499-6.423-0.237-9.704-0.252 1.12 2.84 1.467 6.516 3.486 8.362 7.639 6.926 15.782 13.252 23.971 19.957l-2.888 3.882c-7.307-3.614-14.598-6.642-21.241-10.713-5.181-3.294-9.95-7.198-14.202-11.627-4.734-4.733-9.848-5.869-15.592-3.013-6.454 3.155-12.483 4.97-19.963 2.398-5.318-1.846-11.82-1.941-12.798 6.879-0.173 1.436-3.155 2.808-4.986 3.771-4.104 2.114-8.806 3.36-12.373 6.137-2.35 1.83-3.155 5.663-3.85 8.945-5.712 8.994-14.802 10.461-24.729 10.555-2.114 0-4.197 3.486-6.738 5.774-3.441-5.648-7.97-8.598-15.576-6.484-2.382 0.663-6.185-3.833-9.326-5.963l2.699-0.868c0-5.695 0.789-11.454 0.11-17.054-0.852-7.178 1.815-10.902 10.305-10.902 9.169 0 18.337 0.647 27.49 1.278 5.934 0.394 9.311-2.65 11.314-7.667 3.946-9.813 1.879-13.899-8.521-17.197-2.809-0.729-5.416-2.089-7.622-3.976 8.679-1.956 17.359-3.881 26.054-5.885 2.242-0.521 5.602-0.647 6.423-2.098 6.85-12.085 22.835-8.756 31.136-18.727 1.579-1.941 7.385-0.631 11.22-0.473 2.787 0.233 5.558 0.623 8.301 1.168 2.84-6.61-11.472-9.466-2.84-16.108 2.699-2.083 6.612-2.572 10.368-3.944 1.484 15.13 1.958 13.82 15.355 17.133 10.732 2.651 20.326 1.735 30.614-0.347 3.645-0.726 7.891 1.578 11.93 2.682 2.683 0.694 5.35 1.578 8.458 2.366 1.041-3.692 1.579-6.737 2.73-9.576 2.636-6.815 7.765-8.772 14.55-6.121 3.061 1.199 6.313 1.83 11.141 3.155-0.868-4.102-1.451-6.8-2.067-9.718l35.949 3.282c0.805-8.22-3.155-11.722-9.468-12.116-10.1-0.647-20.263-0.568-30.394-0.442-7.529 0.11-8.806-5.727-9.911-10.775-0.347-1.578 3.297-4.97 5.76-6.043 5.665-2.43 11.836-3.692 17.595-5.979 1.909-0.757 3.157-3.155 4.734-4.828-1.719-1.231-3.329-3.282-5.191-3.55-7.181-1.041-14.44-1.578-21.558-2.177-1.972 10.145-5.775 12.874-15.511 13.347-4.624 0.138-9.17 1.211-13.367 3.155-5.838 2.919-5.429 6.863 0.331 9.86 1.783 0.931 3.63 1.783 5.334 2.619-5.033 5.758-9.736 11.296-14.645 16.644-1.144 1.025-2.588 1.655-4.118 1.799-6.738 0.852-13.556 1.167-20.231 2.335-4.356 0.742-5.35-0.899-5.854-4.733-0.397-3.259-1.408-6.412-2.984-9.292-4.228-7.384-5.838-6.626-12.624-1.956-3.868 2.635-10.416 2.966-15.292 1.988-3.378-0.679-6.706-4.938-8.647-8.377-1.799-3.155-1.736-7.415-2.809-12.748 10.116-3.25 20.436-6.311 30.583-9.876 13.777-4.843 26.607-11.407 37.037-21.945 0.84-0.909 1.944-1.532 3.155-1.783 24.902-3.155 49.948-6.737 74.834-1.578 20.31 4.197 40.083 10.208 57.947 21.803 7.401 4.812 16.964 6.311 25.422 9.545 5.897 2.322 11.565 5.184 16.932 8.551-16.901 3.155-32.176-2.698-48.92-9.466 2.62 7.557 3.868 13.032 6.502 17.733 0.805 1.452 5.382 0.679 8.175 1.199 3.567 0.663 7.749 0.678 10.464 2.635 5.87 4.228 11.661 4.023 15.985-1.83 3.551-4.733 18.684-3.802 21.54 1.215 1.041 1.814 3.157 3.045 6.313 6.011 0.395-5.049 0.9-7.352 0.695-9.608-0.821-9.466-0.6-9.782 8.49-7.32 1.468 0.394 2.951 0.757 4.892 1.246l-5.949 10.491c2.083 0.82 2.951 1.578 3.488 1.309 13.381-4.843 26.038 4.181 39.341 2.067 2.431-0.379 5.541 1.215 7.891 2.682 4.892 3.155 8.932 5.664 15.781 5.522 7.212-0.158 14.503 5.616 21.825 8.646 2.667 1.089 6.124 3.155 8.19 2.303 9.248-3.818 16.806 0.158 24.018 4.591 9.911 6.090 19.19 13.221 29.067 19.358 2.305 1.436 5.997 0.647 9.043 0.883-0.583-2.469-1.453-4.862-2.588-7.131-2.303-3.198-4.78-6.268-7.417-9.198 26.37-7.178 27.743-6.816 39.169 8.772-1.468 5.206-3.74 9.324-3.504 13.3 0.425 6.942-2.856 9.466-8.791 10.176-2.083 0.268-4.354-0.189-6.311 0.489-1.958 0.678-2.872 2.335-4.277 3.581 1.262 1.073 2.525 3.061 3.803 3.155 8.474 0.282 16.956 0.082 25.408-0.6 4.386-0.442 7.069-0.252 9.956 3.676 2.431 3.345 6.582 5.664 10.385 7.652 1.577 0.836 5.35 0.41 6.201-0.805 1.122-1.578 0.917-4.733 0.301-6.847-2.051-7.068-8.096-8.867-14.424-9.813-3.155-0.473-6.313-0.41-9.468-0.584 1.278-14.025 1.278-14.025 7.259-15.95-0.23 2.1-0.192 4.22 0.11 6.311 0.663 2.445 1.579 6.153 3.266 6.705 1.462 0.403 2.99 0.507 4.493 0.303s2.949-0.709 4.25-1.487c6.124-4.323 9.043-4.039 13.95 1.94 4.246 5.175 9.184 9.782 13.525 14.877 1.799 2.098 4.064 4.828 4.049 7.257 0 8.756 4.742 9.292 11.705 7.62 3.923-12.18-9.311-15.619-12.918-23.665 9.925 4.102 19.377 10.144 29.554 11.801 25.6 4.181 44.946 20.068 65.678 32.989 28.073 17.48 55.233 36.524 82.251 55.613 11.768 8.299 22.276 18.396 33.666 27.957-2.032 1.577-2.363 2.114-2.804 2.256-3.151 1.057-6.317 2.051-9.468 3.061 1.953 3.077 4.096 6.023 6.443 8.819 11.485 12.096 23.111 24.091 34.848 35.987 3.891 3.912 7.893 8.124 12.635 10.791 13.643 7.466 25.411 17.937 34.406 30.622 1.591 2.503 2.158 5.519 1.591 8.425-3.056 11.911-0.142 17.528 11.705 21.709 2.395 0.841 4.553 2.229 6.317 4.053 10.791 11.722 21.126 23.87 32.169 35.341 4.884 5.048 11.532 5.158 18.448 2.177 0.126-2.919 0.268-5.996 0.41-9.088l1.922-1.419 18.369 23.713-1.575 1.577-12.115-7.888-2.883 2.666c5.892 10.019 11.043 20.62 17.881 29.976 7.593 10.238 16.337 19.532 19.881 32.232 2.899 10.695 8.302 20.545 15.77 28.729 14.84 16.375 25.742 35.919 31.886 57.142 2.615 8.884 10.933 15.951 16.053 24.234 6.302 10.333 12.288 20.967 17.991 31.679 1.386 2.587 0.63 6.311 1.89 8.977 1.418 2.982 3.891 7.541 6.16 7.699 10.713 0.726 11.863 9.466 14.21 16.345 4.884 14.435 7.719 29.644 13.375 43.748 3.167 7.746 3.419 14.041-1.166 23.823-3.419-5.553-6.302-10.207-9.184-14.845l-2.379 1.971c-0.299 3.266-0.614 6.516-1.024 11.045-9.988-17.67-22.544-33.767-37.226-47.772-6.569-6.311-11.043-14.972-16.116-22.813-5.057-7.842-9.531-16.693-14.935-24.581-2.521-3.6-5.829-6.574-9.689-8.693-4.364-2.382-7.483 1.073-11.422 3.297-3.923 2.224-11.138 4.732-15.864-2.319-1.812-2.666-5.719-4.134-8.948-5.569-10.24-4.512-20.606-8.756-31.082-14.057 7.893-1.23 10.839-5.396 12.178-12.732 2.080-11.232 10.114-12.62 20.212-4.402 11.264 9.172 22.591 18.274 33.997 27.309 2.080 1.319 4.254 2.464 6.506 3.423-0.929-11.831-12.398-13.079-15.927-20.683 4.647-7.177 2.032-15.002-7.357-20.73-8.554-5.205-18.306-8.945-25.789-15.351-6.585-5.632-10.902-13.977-15.943-21.313-1.575-2.272-1.749-5.569-3.434-7.667-10.949-13.553-21.52-27.451-33.461-40.057-5.64-5.964-13.848-9.64-21.189-13.805-7.357-4.165-15.139-7.888-22.827-11.453-3.765-1.799-7.798-3.061-11.705-4.575l-2.316 2.666c1.812 2.398 3.639 4.732 5.435 7.179 1.134 1.498 3.356 3.155 3.167 4.528-0.882 5.979 4.206 7.541 6.995 10.902 3.293 3.943 5.939 8.408 8.917 12.62 1.906 2.667 3.812 5.333 5.845 7.89 1.733 2.177 3.655 4.195 6.522 7.43h-6.632c-0.756 6.138-1.481 12.165-2.379 19.374-7.719-5.648-10.791 0.458-15.785 5.679-1.938-14.924 16.463-19.42 12.241-33.857zM1363.703 185.216c-5.775-14.199-11.661-19.957-20.957-17.764-6.42 1.708-13.241 1.019-19.188-1.941-3.047-1.388-8.869-0.378-11.395 1.846-2.020 1.798-1.831 7.24-1.104 10.744 1.579 8.030 7.055 13.693 13.792 18.111 2.067 1.356 4.039 2.856 6.045 4.276-0.112 0.695-0.206 1.372-0.317 2.067-2.825 0.52-5.681 0.931-8.458 1.577-2.51 0.616-6.439 0.931-7.086 2.478-0.994 2.413-0.915 7.004 0.726 8.52 8.411 7.888 17.359 15.209 29.636 15.996 4.009 0.268 6.187-1.152 5.777-5.222-0.584-5.837-1.468-11.658-2.321-18.111l4.403-3.661c-5.382-6.61-10.527-12.62-15.135-18.931-0.614-0.852 1.736-5.411 2.336-5.333 2.694 0.451 5.273 1.426 7.59 2.872 4.94 2.902 9.659 6.248 15.655 2.477zM1193.003 168.399c6.313 0.551 11.789 1.089 17.359 1.577 2.588 0.205 5.523 1.104 7.748 0.236 10.131-3.975 18.558-0.963 26.969 4.844 10.653 7.335 22.709 9.229 36.691 8.457-4.498-15.777-18.084-21.63-27.379-31.16l6.486-3.297c-5.635-4.291-10.401-4.859-15.592-1.057-11.269 8.251-12.279 8.125-18.243-3.692-2.856-5.632-7.401-8.425-12.625-5.569-7.433 4.039-14.013 9.64-20.879 14.688-0.351 0.371-0.624 0.81-0.8 1.29s-0.254 0.991-0.225 1.502c0.047 4.291 0.317 8.55 0.49 12.18z"></path>
<path d="M46.994 655.333c-2.038 0.646-5.752 1.103-5.847 1.971-0.822 7.313-6.889 9.662-11.393 13.759-2.244 2.048-2.339 6.415-3.429 9.819l-10.192-1.671c-1.786 10.008 0 21.736-16.134 21.972 1.090-4.586 1.88-9.032 3.16-13.303 16.341-51.137 36.868-100.848 61.374-148.631 8.912-17.573 23.703-30.136 33.674-46.59 1.707-2.806 5.562-4.964 8.881-6.021 6.621-2.127 8.375-6.888 10.65-12.783 2.497-6.462 7.664-11.93 11.867-17.684s8.407-11.032 12.736-16.565c3.16-4.050 7.016-7.708 9.939-11.948 5.941-8.684 17.287-11.71 21.681-22.618 2.070-5.185 10.429-7.518 14.221-12.436 9.26-12.009 23.387-16.912 34.764-25.674 2.576-1.987 4.061-5.391 6.051-8.149l-1.785-1.575c-8.375 0.961-16.765 1.843-25.124 2.962-0.964 0.126-1.96 1.404-2.592 2.38-4.014 6.179-7.222 13.035-12.072 18.457-4.852 5.421-11.393 9.552-17.194 14.185l-3.239-2.412c1.58-3.956 2.18-8.605 4.74-11.757 6.843-8.543 14.49-16.423 21.759-24.62 2.576-2.9 4.74-6.305 7.585-8.825 3.485-2.943 7.217-5.578 11.155-7.882 12.973-7.88 28.444-11.71 38.099-25.329 4.172-5.909 10.16-13.177 20.004-7.644 0.901 0.504 3.871-0.819 4.392-1.971 0.521-1.15-0.632-3.357-1.69-4.523-1.758-1.684-3.656-3.219-5.673-4.586l14.87-11.727c12.198 10.938 21.031-0.851 32.094-5.47-5.104 13.271-20.811 16.913-23.213 30.169l1.58 2.521c4.408-2.332 9.15-4.176 13.162-7.061 8.455-6.068 16.545-12.609 24.73-19.072 2.535-1.867 4.879-3.978 6.999-6.305 4.473-5.216 3.16-8.951-3.666-11.19 1.58-1.308 3.16-2.617 4.646-3.846s2.829-2.097 3.256-2.428c3.965 2.711 9.069 8.307 11.392 7.313 4.742-1.985 11.456-7.88 11.062-11.489-0.712-5.738-6.558-10.812-10.84-17.054 5.657-6.021 14.711-4.068 23.18-3.011 5.374 0.677 9.656 2.206 13.069-4.225 1.137-2.143 7.047-9.788 10.398 0.189 0 0.142 5.656-0.504 7.157-2.158 2.711-3.302 4.92-6.982 6.558-10.924 0.941-2.648 1.618-5.383 2.023-8.164l-2.276-2.034c-6.083 3.152-12.324 5.942-18.219 9.457-8.8 5.107-13.162 5.186-19.103-1.119l21.094-21.61c2.007 4.54 3.16 7.061 4.203 9.552 7.648 0.221 10.604-2.617 11.44-9.457 0.394-3.031 1.924-5.802 4.283-7.754 11.74-8.055 23.528-16.124 35.949-23.027 5.467-3.042 12.483-3.294 18.788-4.871 15.358-3.893 30.75-7.723 46.063-11.789 4.597-1.214 8.2-1.97 11.344 3.152 3.872 6.305 8.992 2.443 13.685 0.41 2.495-1.087 5.055-2.585 7.663-2.727 6.795-0.394 13.622-0.142 20.543-0.142-3.571 6.714-8.644 11.743-17.698 11.696-4.202-0.047-8.384 0.548-12.405 1.764-1.897 0.583-3.16 3.294-4.74 5.044 1.801 1.071 3.493 2.773 5.419 3.152 3.335 0.504 6.875-0.236 10.208 0.315 1.889 0.525 3.671 1.377 5.262 2.521-5.246 3.69-9.766 6.968-14.412 10.040-1.683 1.207-3.573 2.094-5.577 2.617-12.042 2.632-24.351 4.32-36.124 7.882-8.011 2.395-15.343 7.155-22.897 11.032-2.686 1.372-5.136 3.152-7.696 4.855l-2.133-1.987c2.149-2.428 3.857-5.974 6.543-7.045 7.237-2.9 13.115-6.431 16.023-14.186 1.059-2.836 4.55-4.728 6.62-7.25 0.454-0.548 0.777-1.191 0.947-1.883 0.17-0.69 0.181-1.41 0.033-2.105-0.462-0.559-1.057-0.996-1.73-1.271s-1.402-0.38-2.125-0.304c-4.74 1.229-10.193 1.213-12.104 7.738-0.885 3.042-4.109 5.407-7.318 9.363-0.268-11.948-3.286-13.618-12.641-9.646-2.702 1.15-5.846 1.308-7.901 3.011-2.94 2.19-5.862 4.413-8.849 6.541-2.133 1.497-4.74 2.522-6.431 4.381-2.035 2.532-3.858 5.226-5.452 8.055l9.481 2.694c-5.514 12.783-22.296 14.549-30.718 28.135l42.238-13.24 0.838 2.27c-2.607 2.727-4.061 6.305-10.018 4.334-2.798-0.945-7.475 1.308-10.335 3.42-3.713 2.743-6.48 6.777-9.006 9.552l-13.922-4.192c-0.696 0.63-1.438 1.008-1.423 1.323 0.807 8.433-6.32 11.032-10.65 16.14-9.181 10.875-16.134 23.642-23.245 36.251-1.423 2.491-0.506 7.677 1.326 10.15 1.107 1.482 6.163-0.41 9.292 0.11 10.098 1.671 17.066-4.523 25.283-8.526 14.095-6.888 28.981-12.168 43.597-17.953 1.441-0.317 2.948-0.126 4.266 0.536 4.583 1.939 9.054 4.083 13.558 6.147 6.763 3.152 12.436 0.252 15.518-5.090 3.412-5.911-1.802-10.024-6.037-13.555-1.739-1.222-3.592-2.278-5.53-3.152 8.754-1.782 16.608-7.882 16.149-12.609-0.759-8.228-8.249-6.84-13.748-8.559-0.126-2.459 0.474-5.106-0.458-7.029-4.74-9.93 2.418-13.429 8.992-17.18 7.727-4.414 15.486-7.882 24.967-8.008 5.862 0 11.677-3.704 18.282-6.005-0.301 2.711-0.537 4.84-0.759 6.951 11.678 3.152 20.354 1.577 25.821-12.718 1.881-4.903 4.345-6.415 9.481-4.020 7.244 3.401 14.728 6.267 22.391 8.575 3.926 0.991 8.042 0.947 11.946-0.126 5.374-1.402 9.766-1.577 14.87 1.575 3.414 2.081 8.296 1.766 13.084 2.632-1.185 3.436-2.401 7.014-3.776 11.034-10.824-4.020-12.832 6.856-18.835 10.891-6.32 4.239-11.503 10.197-17.666 15.856-2.528-8.843-6.97-3.152-11.71-2.428-14.095 2.065-16.576 14.848-23.702 23.405-0.332 0.41 0.126 1.482 0.331 3.152 11.456-1.276 15.234-16.423 28.001-15.762 0.238 2.68 0.427 4.903 0.632 7.456 4.74 0 9.656 0.693 14.223-0.221 4.124-0.821 7.901-3.42 13.099-5.832 3.286 1.938 3.54 2.774-0.301 5.675-9.481 7.171-18.961 14.185-29.091 21.766-0.78-1.558-1.821-2.971-3.081-4.176-1.453-1.071-4.502-2.302-5.293-1.577-5.388 4.525-10.476 9.457-15.437 14.407-4.962 4.948-4.868 9.804 2.086 14.846-4.082 2.436-8.304 4.63-12.642 6.573-4.866 1.876-5.545 5.092-7.159 9.772-1.801 5.155 1.944 14.533-8.137 16.061-0.854 0.142-1.865 4.729-1.328 6.889 0.744 2.946 2.892 5.531 4.567 8.494-5.909 9.457-13.495 20.964-20.541 32.863-2.418 4.098-1.771 8.086 2.765 11.57 4.554 3.768 8.677 8.030 12.293 12.704 0.964 1.15 0.348 3.625 0.458 5.5-1.607 0.158-3.226 0.158-4.835 0-6.32-1.166-11.836-3.452-14.648-10.056-0.443-1.008-5.073-1.575-5.293-1.134-2.245 4.444-5.468 4.539-9.719 3.546-1.738-0.41-4.124 0.646-5.83 1.67-4.216 2.453-8.264 5.18-12.121 8.165-1.974 1.575-4.597 3.987-4.597 6.021 0 7.203-4.252 8.353-9.988 10.056-8.58 2.569-16.134 7.155-18.188 17.243-0.758 3.656-3.048 28.844-2.212 31.996 2.987 11.363 22.013 20.742 32.757 15.651 2.623-1.246 3.697-5.564 6.32-7.155 7.316-4.509 11.425-9.662 7.902-18.757-0.49-1.23 2.464-4.271 4.361-5.864 3.318-2.774 7.064-5.076 11.677-8.305 0.996 10.544 1.897 20.174 3.050 32.577 6.194-3.373 11.204-5.169 14.965-8.431 3.255-2.837 4.866-7.565 10.539-6.194s5.783 5.517 6.147 10.26c0.728 9.457 5.578 16.219 13.115 16.864 4.283 0.347 8.817-2.426 13.432-3.846-0.315 4.572-0.996 9.095-8.17 8.512s-14.063-0.772-21.079-1.372c-1.489-0.273-2.855-1.007-3.904-2.095-7.726-7.456-12.531-7.014-22.344-2.317-7.036 3.037-14.646 4.521-22.311 4.35-10.494 0-13.811-0.914-17.098 9.095-0.537 1.577-3.16 2.916-5.152 3.593-3.869 1.267-7.804 2.319-11.789 3.152-7.426 1.687-14.886 3.263-22.344 4.871-2.765 0.599-5.783 0.677-8.264 1.875-4.74 2.286-8.77 0.567-10.761-3.152-3.823-7.124-10.002-6.305-16.291-6.604-14.695-0.52-29.406-1.245-44.103-1.969-0.98 0-1.879-0.915-2.875-1.199-3.003-0.851-6.053-1.575-9.087-2.395-0.742 3.341-1.58 6.683-2.354 10.513 9.054 0.788 16.891 1.087 24.571 2.317 3.888 0.614 7.379 3.562 11.251 4.287 4.187 0.772 8.643 0.173 15.043 0.173-13.101 10.134-27.29-1.134-39.126 6.762-0.299-2.16-0.584-4.271-0.947-6.872-1.328-0.221-2.782-0.52-4.252-0.709-4.945-0.6-10.081-0.506-14.805-1.861-9.040-2.601-17.761-6.431-26.374 1.182-1.295 1.136-4.030 1.010-6.068 0.9-8.359-0.488-16.765-0.868-25.077-1.939-6.051-0.772-10.112-4.192-12.357-10.465-1.953-5.347-4.836-10.309-8.517-14.659-4.74-5.626-10.698-8.699-18.615-4.728-5.199 2.585-11.061 3.987-17.381 6.305-3.445-6.305-9.103-5.911-16.007-1.955-2.338 1.341-6.068 0-9.038 0.567-2.688 0.802-5.29 1.857-7.775 3.152 2.246 1.98 4.616 3.817 7.094 5.501 1.171 0.693 3.003 0.284 4.74 0.378-5.799 9.457-12.119 10.623-18.314 2.9-4.235-5.296-7.615-1.355-9.717 0.646-4.868 4.729-9.877 6.305-16.656 6.573-4.74 0.142-9.987 3.152-13.842 6.305-9.402 7.661-18.283 15.967-27.084 24.321-8.043 7.644-16.703 14.941-23.213 23.768-4.567 6.179-5.989 14.657-8.786 22.066-1.801 4.822-3.508 9.678-5.183 14.185l-5.12-6.226c-1.391 2.569-3.445 5.013-3.966 7.74-0.6 3.278 0 6.793 0.269 10.197 0.474 7.723 1.169 8.069 8.612 3.846-0.19 8.685-3.666 14.405-11.061 19.119-3.682 2.332-5.531 8.148-7.316 12.751-4.835 12.419-9.197 25.028-13.748 37.559l-2.718-0.866 11.946-37.133-1.77-1.75z"></path>
<path d="M568.8 488.672c1.495-0.514 3.064-0.789 4.646-0.816 9.985 1.571 10.568 0.471 14.174-8.876 3.151-7.948 8.049-15.173 13.136-22.445 1.985 6.283 1.056 13.476 9.103 15.612 1.134-6.691 2.174-12.942 3.23-19.193l2.44 1.963c4.268-1.068 8.474-2.686 12.805-3.141 7.59-0.707 14.174-1.963 18.615-9.424 0.772-1.304 11.119 0.329 11.45 1.837 1.449 6.535 6.536 5.2 9.136 4.085 7.055-3.064 11.403 1.177 16.82 3.847 2.708 1.336 7.795 1.744 9.748 0.11 7.984-6.628 15.024-3.518 22.049 0.833 4.725 2.889 8.914 6.376 14.174 10.177l-13.323 12.126c4.929 6.519 9.544 6.283 13.544 0 1.575-2.465 3.401-4.712 5.118-7.13l2.599 1.571c-1.465 2.921-3.009 5.812-4.346 8.795-0.665 1.673-1.232 3.384-1.701 5.12 1.952 0 4.378 0.802 5.749 0 1.758-1.386 3.026-3.294 3.622-5.449 2.395-7.76 7.245-10.618 15.403-8.466 8.079 2.154 16.504 2.688 24.79 1.571 9.449-1.163 19.954 4.539 29.734 8.011 1.827 0.627 3.686 5.088 3.261 7.351-1.304 7.732-3.417 15.306-6.3 22.602-3.779 9.016-10.473 15.99-5.749 27.974s0.362 25.554-4.977 36.974c-2.426 5.215-11.025 7.288-15.938 11.718-4.536 4.068-8.112 9.266-11.718 14.246-0.351 0.813-0.523 1.694-0.504 2.579 0.019 0.887 0.228 1.758 0.614 2.557 4.536 9.895 1.575 17.874-5.654 25.131-1.119 1.131-1.26 3.252-1.78 4.917-2.377 7.493-4.047 15.299-7.259 22.397-2.883 6.283-7.245 6.032-11.418 0.205-1.402-1.947-3.025-3.723-5.213-6.393-2.788 7.021-0.142 10.995 3.795 14.686 7.953 7.571 5.512 19.163-4.819 23.796-10.079 4.525-10.646 2.451-8.159 15.582l-10.253 1.492-1.26 1.994 9.624 8.513c-2.363 7.225-5.181 15.88-8.175 25.131l10.363 1.791c-1.684 4.351-2.897 8.151-4.599 11.733-6.773 14.355-2.645 22.586 14.961 26.041l-15.324 11.388c0.378-6.048 0.583-9.299 0.788-12.565l-2.363-1.383c-1.873 3.141-3.764 6.142-5.906 9.645-7.259-3.141-11.905-9.11-15.261-16.319-1.071-2.278-2.204-4.509-4.063-5.278-1.796-4.099-4.173-8.042-5.229-12.315-0.728-3.477-0.625-7.077 0.299-10.508 1.355-5.23 2.426-9.958-1.985-14.404-1.349-1.597-2.188-3.56-2.409-5.638-1.906-14.136-10.379-27.235-5.638-42.299 0.63-2.026-1.465-4.712-1.875-7.272-1.071-6.472-1.953-12.973-2.818-19.476 0.028-1.821-0.057-3.641-0.252-5.451-3.151-11.968-6.41-23.889-9.561-35.843-3.149-11.952-13.496-15.33-23.040-14.136-12.6 1.571-17.939-7.319-25.594-12.928-6.379-4.712-11.639-10.853-17.764-15.91-2.346-1.898-5.237-2.998-8.253-3.141-5.89 0-7.874-2.592-6.048-7.855 1.827-5.262 1.166-9.69-3.48-13.131-3.842-2.842-3.403-5.355-1.497-9.816 3.37-7.853 6.426-16.54 6.71-24.959 0.457-13.257-10.331-18.282-20.994-24.141z"></path>
<path d="M894.19 4.13c-5.093 3.765-10.22 7.499-15.265 11.31-8.217 6.249-8.249 10.591-0.206 16.934-0.961 2.531-2.981 5.202-2.664 7.592 1.15 8.873-2.807 11.56-11.040 10.717-2.492-0.25-5.095 0.812-7.666 1.156-6.15 0.844-6.308 4.421-4.211 8.998 1.341 2.89 2.87 5.702 4.323 8.545l-1.988 2.64c-3.154-1.562-6.45-3.234-9.715-4.686s-6.040-3.343-9.194-3.687c-1.404-0.141-4.006 2.874-4.463 4.827-0.301 1.219 2.097 3.656 3.816 4.593 2.382 1.281 5.268 1.656 10.141 3.046l-53.907 15.341c-0.252 0-0.599 0.109-0.725 0.281-8.028 12.497-22.6 10.732-34.161 15.622-4.271 1.706-8.123 4.3-11.292 7.608-1.861 2.046-1.482 6.077-2.287 10.123-7.444-0.75-8.595 4.327-8.406 11.888 0.158 6.514-8.058 10.029-14.194 7.186-1.971-0.906-5.125-1.89-6.544-1-10.646 6.78-19.084-3.124-28.705-3.499-1.087 0-1.955-2.718-3.154-4.015s-2.413-3.327-3.864-3.577c-13.689-2.281-15.155-4.202-11.749-16.309 0.126-0.437-0.236-0.984-0.142-0.656-4.069-1.562-10.883-3.593-10.755-4.155 1.26-5.858 5.946-7.811 12.064-7.592v7.811c3.422-0.437 7.192-0.187 10.030-1.687 1.010-0.531 0.789-6.061-0.662-7.967-5.536-7.342-17.35-7.342-23.658-0.516-1.419 1.562-2.618 3.124-4.132 5.077-1.876-3.906-3.849-6.702-4.605-9.81-1.577-6.249-6.309-8.045-11.592-8.155-18.358-0.344-36.275 1.312-53.229 9.623-3.154 1.562-7.727 0.219-10.267 0.219-4.038 3.905-7.003 9.076-11.040 10.029s-9.322-2.078-14.1-3.374c10.535-11.67 25.235-16.262 39.287-21.574 31.92-12.138 63.921-24.292 96.489-34.571 28.908-9.123 58.496-16.2 88.004-23.292 24.162-5.811 48.575-10.748 73.036-15.247 17.098-3.124 34.446-4.905 51.684-7.28l0.709 1.484z"></path>
<path d="M1587.468 871.856c-0.898-4.068-1.89-8.134-2.678-12.233-0.41-1.385-0.347-2.874 0.205-4.209 4.789-6.626 3.497-13.711 2.048-20.86-0.142-0.715-0.473-1.588-0.221-2.16 4.348-9.708-2.284-8.499-8.113-8.198-1.323 0-2.694-0.11-5.723-0.254 7.677-5.927 7.378-12.042 2.982-17.81-4.192-5.448-2.442-13.789-9.668-17.792-6.128-3.384-13.243-5.56-16.984-12.598-0.636-1.207-5.38-1.493-7.321-0.476-4.649 2.415-7.784 0.444-11.51-1.812-4.202-2.541-8.929-4.146-13.243-6.513-4.058-2.24-8.531-4.321-11.652-7.579-5.093-5.306-3.359-9.531 4.027-10.372 4.777-0.509 5.429-2.812 5.556-6.799 0.222-8.183-1.497-17.651 2.053-24.147 3.549-6.498 4.6-13.933 8.149-20.288s16.538-5.719 23.352 0.191c5.093 4.4 11.412 7.452 17.509 10.565 1.018 0.525 3.899-1.271 5.14-2.684 3.374-3.846 6.717-3.527 11.286-2.034 3.828 1.13 7.924 1.046 11.705-0.238 7.089-2.574 11.138-0.778 11.878 7.116 0.662 7.214 2.237 10.724 9.941 5.498 2.032-1.383 5.813-0.206 8.98-0.206 0.898 5.878 2.221 11.119 7.483 5.497l13.060 15.727c-0.205 0.413-0.378 1.588-0.898 1.716-10.902 3.956-8.712 11.756-6.176 19.907 1.796 5.703 2.977 11.581 4.695 17.315 0.41 1.673 1.434 3.13 2.867 4.083 4.6 2.034 16.258-4.416 18.243-9.199 1.796-4.181 4.348-7.992 7.546-11.231-4.773 15.568 1.985 32.741-7.641 47.452-1.812 2.781-0.898 7.817-0.252 11.661 3.938 23.273 1.134 44.817-17.881 60.972-5.404 4.608-13.344 6.355-20.259 9.087-7.956 3.178-16.037 4.767-23.19-1.859-2.41-2.256-4.301-5.051-6.491-7.529-2.41-2.733-4.868-5.386-7.326-8.086l-1.481 0.381z"></path>
<path d="M1700.612 790.938c-0.425-8.039-1.26-16.255-1.15-24.374 0.11-7.508-7.625-15.146-15.565-13.184-7.278 1.801-8.397-1.607-9.169-7.010-0.614-4.291-2.001-8.553-2.080-12.861 0-2.026 3.277-4.165 3.277-6.127-0.331-5.723-0.536-11.882-2.804-16.994-4.049-9.085-9.563-17.542-14.383-26.095l9.468-4.261c7.373 9.213 16.542 18.539 23.079 29.39 7.593 12.622 13.107 26.482 13.611 41.644 0.378 11.255 1.15 22.509 1.465 33.668 0 2.138-1.213 4.309-1.89 6.431l-3.86-0.225z"></path>
<path d="M1590.697 616.52c-21.38-16.838-25.557-28.080-19.149-44.982 5.002 0.413 10.027-0.621 13.162 1.383 7.467 4.77 16.935-1.081 23.694 5.613 3.135 3.069 5.309 2.13 6.758-1.972 0.441-1.24 2.111-2.051 3.907-2.495-1.575 5.374 3.135 12.083-5.325 15.804-2.568 1.114-2.158 9.175-3.293 14.898-8.003 0.365-17.66-0.953-19.755 11.751z"></path>
<path d="M1261.228 484.215c4.951 5.575 3.671 12.118 0.909 17.469-7.218 14.024-15.116 27.697-23.338 41.133-1.172 1.922-5.846 2.636-8.529 2.064-1.389-0.285-2.762-4.668-2.73-7.177 0.123-7.942-0.942-16.422 5.506-22.933 0.679-0.699 0.602-2.541 0.37-3.748-1.681-9.148-1.542-14.993 10.998-14.468 5.167 0.238 10.643-7.592 16.814-12.34z"></path>
<path d="M999.555 81.654c-12.094-4.272-24.474-3.829-28.631-15.364 5.928-3.164 10.687-6.756 16-7.911 3.477-0.791 8.031 1.44 11.589 3.291 1.834 0.949 2.656 3.987 3.778 6.171 1.123 2.183 1.582 5.49 3.368 7.025 4.87 4.145 10.64 7.263 15.382 11.519 2.53 2.278 3.669 6.092 5.44 9.209-3.573 1.582-7.020 4.066-10.703 4.478-6.421 0.715-12.906 0.63-19.305-0.253-3.51-0.506-6.688-3.465-10.007-5.316 1.881-2.199 3.636-4.525 5.69-6.551 2.056-2.025 4.332-3.734 7.4-6.297z"></path>
<path d="M1833.37 542.161c-1.15 6.498-1.969 11.165-2.505 14.122-5.86 2.557-10.382 4.528-16.715 7.315-2.143-1.171-6.112-3.419-10.161-5.544s-8.665-4.296-12.918-6.576c-1.796-0.955-4.317-1.971-4.758-3.496-1.591-4.851-4.521-6.56-9.783-6.867-2.143-0.124-3.828-4.343-6.081-6.314-1.859-1.541-4.553-4.112-6.365-3.757-8.995 1.862-10.776 0.662-9.878-8.316 0.268-1.407 0.677-2.784 1.229-4.112 5.325 1.309 10.476 1.941 15.013 3.912 3.261 1.432 5.734 4.621 8.523 7.069 4.474 3.88 8.791 7.962 13.47 11.626 2.962 2.341 6.632 3.834 9.704 6.16 6.758 4.973 13.485 2.064 20.102 0 3.277-1.109 6.349-3.018 11.122-5.221z"></path>
<path d="M1547.623 573.954l-11.76 10.812c-2.494-5.834-6.694-12.958-8.465-20.611-1.642-6.689 0.525-14.093-0.673-20.923-2.133-12.195-5.545-24.188-8.203-35.202 3.675 1.043 9.285 13.331 14.765 31.609 3.822 12.071 9.908 23.582 14.336 34.315z"></path>
<path d="M873.015 110.562c4.282-0.306 8.912-1.863 12.119-0.612 10.933 4.254 21.109 0 31.601-0.862 5.783-0.473 12.023-2.238 17.128 3.726-7.3 2.336-14.3 4.324-21.046 6.798-7.048 2.6-12.926 3.378-20.099-1.196-5.183-3.295-15.516 3.309-19.703-7.855z"></path>
<path d="M952.4 84.285c5.059-2.658 9.29-5.933 14.147-7.22 3.22-0.852 9.071 0 10.387 2.156 1.771 2.891 3.997 8.357-1.939 11.298-1.872 0.919-3.371 2.724-5.328 3.343-4.822 1.588-9.78 2.724-14.687 4.045-0.893-4.663-1.786-9.41-2.579-13.622z"></path>
<path d="M1634.918 997.715c3.056 0 4.584-0.397 5.734 0 8.271 3.297 16.526 6.637 24.623 10.275 1.686 0.764 2.71 2.831 4.033 4.247-2.143 1.415-4.569 4.146-6.365 3.792-7.294-1.486-14.903-3.028-21.362-6.355-3.182-1.599-4.128-7.105-6.664-11.959z"></path>
<path d="M650.793 223.701l-31.739 11.79c-0.158-12.148 2.248-14.785 14.369-15.639 1.525 0.014 3.026-0.365 4.359-1.101 5.544-3.863 8.966-1.101 13.011 4.95z"></path>
<path d="M1539.934 492.153c10.349 18.361 12.483 37.13 8.386 58.212-3.154-6.97-7.519-12.586-8.039-18.564-1.076-12.869-0.347-25.865-0.347-39.648z"></path>
<path d="M1412.729 58.209c-15.376 0.303-23.105-12.929-37.037-17.946 13.9-2.997 32.050 6.229 37.037 17.946z"></path>
<path d="M1832.157 537.138c2.962 1.038 6.018 1.788 9.106 2.239 5.687 0.345 8.712 2.944 10.366 8.424 1.15 3.805 3.671 7.171 5.593 10.741 1.497 2.306 2.395 4.956 2.584 7.704l-29.097-28.184 1.449-0.923z"></path>
<path d="M271.236 277.83c4.112 7.66-2.995 11.020-6.207 14.016-8.085 7.568-17.643 13.624-26.52 20.404-3.196 2.451-6.097 5.267-9.123 7.916l-1.878-2.089 43.728-40.248z"></path>
<path d="M1668.064 568.89l-8.98-1.482c-1.008-7.212-2.001-14.298-2.993-21.447 6.065-0.364 11.296-1.342 16.242-0.632 1.827 0.268 3.025 4.482 4.915 7.592-17.66 1.325-17.66 1.325-9.184 15.97z"></path>
<path d="M333.35 248.128c-2.021 4.405-3.152 9.889-6.398 12.832-2.204 1.987-7.392 0.381-11.248 0.381l-0.873-2.925 15.305-12.338 3.214 2.051z"></path>
<path d="M1648.152 592.707l14.809 9.794c0.457-0.547 0.929-1.093 1.386-1.657 0.331 0.432 0.882 0.813 0.961 1.276 0.882 4.376 3.781 10.358-3.088 11.601-6.538 1.159-8.932-4.408-10.193-9.944-1.056-3.757-2.347-7.455-3.875-11.070z"></path>
<path d="M584.677 421.937c11.518-13.353 16.427-14.983 21.164-6.922-6.738 2.891-11.806 11.759-21.164 6.922z"></path>
<path d="M1681.077 1010.998l6.727-2.875c0.914 5.353 1.764 10.492 2.678 15.875l-10.571-0.748c0.362-4.083 0.756-7.908 1.166-12.252z"></path>
<path d="M1613.493 650.906c-0.819-4.098-2.867-7.705-1.749-9.991 4.159-8.668-0.378-10.594-8.239-10.872-0.709 0-1.418-0.701-2.946-1.519l10.067-6.725c5.75 4.146 8.145 21.663 2.867 29.107z"></path>
<path d="M370.39 206.801l-42.329 12.814c12.898-8.442 26.392-14.971 42.329-12.814z"></path>
<path d="M301.6 248.43l15.874-12.939c-0.786 9.862-6.396 14.484-15.874 12.939z"></path>
<path d="M1452.397 436.585c-1.53 7.039-2.508 12.153-3.839 18.522-6.458-6.648-5.356-11.417 3.839-18.522z"></path>
<path d="M285.723 240.99c6.035-2.311 10.648-7.971 21.165-4.279l-20.025 6.719-1.141-2.44z"></path>
</svg>
